<svg xmlns="http://www.w3.org/2000/svg" xmlns:xlink="http://www.w3.org/1999/xlink" id="Capa_2" viewBox="0 0 239.04 175.9"><defs><style>.cls-1{fill:url(#linear-gradient);}.cls-1,.cls-2,.cls-3,.cls-4,.cls-5,.cls-6,.cls-7,.cls-8,.cls-9,.cls-10,.cls-11,.cls-12,.cls-13,.cls-14,.cls-15,.cls-16,.cls-17,.cls-18{fill-rule:evenodd;}.cls-2{fill:url(#linear-gradient-14);}.cls-3{fill:url(#linear-gradient-11);}.cls-4{fill:url(#linear-gradient-13);}.cls-5{fill:url(#linear-gradient-12);}.cls-6{fill:url(#linear-gradient-10);}.cls-7{fill:url(#linear-gradient-15);}.cls-8{fill:url(#linear-gradient-17);}.cls-9{fill:url(#linear-gradient-16);}.cls-10{fill:url(#linear-gradient-18);}.cls-11{fill:url(#linear-gradient-8);}.cls-12{fill:url(#linear-gradient-9);}.cls-13{fill:url(#linear-gradient-3);}.cls-14{fill:url(#linear-gradient-2);}.cls-15{fill:url(#linear-gradient-4);}.cls-16{fill:url(#linear-gradient-6);}.cls-17{fill:url(#linear-gradient-7);}.cls-18{fill:url(#linear-gradient-5);}</style><linearGradient id="linear-gradient" x1="-36.35" y1="190.41" x2="217.78" y2="20.44" gradientUnits="userSpaceOnUse"><stop offset="0" stop-color="#ddbc82"></stop><stop offset=".31" stop-color="#9a7860"></stop><stop offset=".65" stop-color="#ddbc82"></stop><stop offset="1" stop-color="#9a7860"></stop></linearGradient><linearGradient id="linear-gradient-2" x1="-18.07" y1="217.75" x2="236.06" y2="47.78" xlink:href="#linear-gradient"></linearGradient><linearGradient id="linear-gradient-3" x1="-86.79" y1="114.99" x2="167.34" y2="-54.98" xlink:href="#linear-gradient"></linearGradient><linearGradient id="linear-gradient-4" x1="-81.85" y1="122.39" x2="172.28" y2="-47.58" xlink:href="#linear-gradient"></linearGradient><linearGradient id="linear-gradient-5" x1="-72.1" y1="136.96" x2="182.03" y2="-33.01" xlink:href="#linear-gradient"></linearGradient><linearGradient id="linear-gradient-6" x1="-62.35" y1="151.54" x2="191.78" y2="-18.43" xlink:href="#linear-gradient"></linearGradient><linearGradient id="linear-gradient-7" x1="-83.28" y1="120.24" x2="170.85" y2="-49.73" xlink:href="#linear-gradient"></linearGradient><linearGradient id="linear-gradient-8" x1="-55.71" y1="161.47" x2="198.42" y2="-8.5" xlink:href="#linear-gradient"></linearGradient><linearGradient id="linear-gradient-9" x1="-49.15" y1="171.28" x2="204.98" y2="1.31" xlink:href="#linear-gradient"></linearGradient><linearGradient id="linear-gradient-10" x1="-51.37" y1="167.96" x2="202.76" y2="-2.01" xlink:href="#linear-gradient"></linearGradient><linearGradient id="linear-gradient-11" x1="-63.9" y1="149.23" x2="190.23" y2="-20.74" xlink:href="#linear-gradient"></linearGradient><linearGradient id="linear-gradient-12" x1="-38.79" y1="186.76" x2="215.34" y2="16.79" xlink:href="#linear-gradient"></linearGradient><linearGradient id="linear-gradient-13" x1="-15.18" y1="222.07" x2="238.95" y2="52.1" xlink:href="#linear-gradient"></linearGradient><linearGradient id="linear-gradient-14" x1="-24.8" y1="207.68" x2="229.33" y2="37.71" xlink:href="#linear-gradient"></linearGradient><linearGradient id="linear-gradient-15" x1="-6.83" y1="234.56" x2="247.3" y2="64.59" xlink:href="#linear-gradient"></linearGradient><linearGradient id="linear-gradient-16" x1="-2.74" y1="240.67" x2="251.39" y2="70.7" xlink:href="#linear-gradient"></linearGradient><linearGradient id="linear-gradient-17" x1="1.26" y1="246.65" x2="255.39" y2="76.68" xlink:href="#linear-gradient"></linearGradient><linearGradient id="linear-gradient-18" x1="-47.68" y1="173.47" x2="206.45" y2="3.5" xlink:href="#linear-gradient"></linearGradient></defs><g id="Capa_1-2"><path class="cls-1" d="m137.5,134.54c-1.93-6.09-10.47,1.02-12.94-2.34-7.94-25.65-14.71-71.17-43.4-77.88,22.47,19.79,31.48,50.78,38.36,79.59.44,3.14-5.29,3.87-7.29,5.81-6.94-1.2-14.42-2.3-21.05,1.88-3.69,1.74-7.56-1.46-11.55-.38-3.62-.26-6.88,2.68-10.34,1.69-7.93-4.08-15.95,3.71-23.24,2.62-4.64-2.93-10.5-3.54-15.86-2.91-5.53-1.78-9.62-7.9-16.31-8.15,6.38-28.96,15.73-60.14,38.24-80.14-27.12,5.57-34.3,48.56-42.06,72.53-.61,13.29-11.36,8.08-9.92,14.83,12.34-8.01,2.84,8.33,2.38,14.61,4.11,10.07,8.73-13.14,9.8-16.62,2.09-3.98,8.66,1.62,11.16,3.46,1.22.86.25,1.63-.57,2.4-9.24,12.25,13.19,19.03,7.97,1.26,20.6-.66,9.3,3,14.04,11.5,5.12,5.44,9.93-2.35,6.66-7.22-1.7-4.95,10.68-4.72,14.17-4.86,1.34,0,.7,1.29.25,1.95-1.48,1.98-1.38,4.23-.85,6.42.78,6.05,10.15,5.08,10.39-.51.21-2.29-.39-4.39-1.29-6.47.66-3.64,8.6-2.53,11.55-1.61-5.26,14.53,20.01,10.85,7.93-.98,21.48-6.21,10.57-1.13,13,8.48,2.02,5.85,9.78,2.03,9.48-3.09.08-4.58-3.74-7.64,2.47-9.57,5.83-3.95,3.88,21.59,11.7,17.47,2.17-5.58-6.3-16.26-3.01-20.72,2.78-1.33,9.51.14,10.11-3.04Zm-111.08,18.59c-3.54-.4-3.22-5.36.21-5.16,1.13.84,2.38,5.63-.21,5.16Zm22.14,2.26c-4.57.05-.43-6.52.97-.96-.36.37-.61.84-.97.96Zm22.49-1.32c-3.47,1.37-3.87-3.74-1.31-5.02,2.75-.73,3.55,4.32,1.31,5.02Zm21.42-3.21c-1.97.58-5.68-.23-3.62-2.84.95-1.44,6.02,2,3.62,2.84Zm19.29.36c-4.21,3.23-2.67-6.08.17-4.98,1.2,1.3,1.17,3.88-.17,4.98Z"></path><path class="cls-14" d="m124.06,159.82c-5.61-2.6-11.68,2.04-16.32,4.95-12.08,6.25-28.09-9.83-40.2,1.19-11.58,1.72-19.16-7.54-33.21.26-9.13,3.57-16.48-11.77-25.57-5.95-1.53,1.61,1.21,2.42,2.34,2.51,6.4-.55,10.52,5.4,16.32,7.15,16.84,1.84,15.75-7.59,37.36,2.01,22.25-14.76,31.84,8.41,51.18-7.72,1.8-2.36,11.28-.06,8.11-4.4Z"></path><path class="cls-13" d="m48.43,13.8c6.71-4.41,13.02-1.83,17.75,4.24.94.88,1.13.88,1.99.09,4.04-4.63,10.6-9.86,16.4-4.68,9.91-.3-9.17-11.16-17.35,1.69-4.38-5.35-10.2-7.75-16.9-5.66-1.8.19-4.97,3.73-1.89,4.33Z"></path><path class="cls-15" d="m44.57,30.68c2.37,2.66,9.35,20.18,11.61,17.54.2-10.53-12.95-17.21-7.39-28.46.17-.92-.55-1.8-1.61-1.87-3.64,2.7-3.77,8.72-2.61,12.79Z"></path><path class="cls-18" d="m85.85,18.73c4.74,11.81-7.16,18.68-7.65,29.62,1.57,2.83,12.49-18.41,12.45-21.27-.4-2.43-1.1-11.31-4.8-8.35Z"></path><path class="cls-16" d="m35.96,98.38c5.79-12.12,12.86-26.69,20.28-38.4-5.83.6-23.59,33.44-20.28,38.4Z"></path><path class="cls-17" d="m70.63,26.11c3-4.33,7.32-6.54,12.04-8.48-3.57-4.23-11.04,3.93-14.2,6.81-1.43,1.3-2.5-1.06-3.48-1.87-2.69-2.93-6.39-4.1-10.03-4.25-6.71,2.97,7.89,4.43,8.76,8.33,2.1,3.1,5.11,2.52,6.92-.54Z"></path><path class="cls-11" d="m69.43,63.42c-1.07-1.93-2.2,1.09-2.33,2.12-3.81,44.01,2.86,35.06,2.33-2.12Z"></path><path class="cls-12" d="m79.73,92.51c-.94-2.76-1.23-25.56-4.29-20.64-.57,4.17,3.46,42.42,4.57,25.64.05,0,.1,0,.14,0-.14-1.67-.26-3.33-.43-4.99Z"></path><path class="cls-6" d="m93.63,83.76c.29.43.75.75,1.41,1.38-6.13-23.63-24.25-33.94-1.41-1.38Z"></path><path class="cls-3" d="m51.81,75.62c1.19-.85,9.19-13.72,4.13-10.31-1.66,2.65-5.92,7.68-4.13,10.31Z"></path><path class="cls-5" d="m98.99,97.86c.27-.16.4-.55.66-.94-.75-1.54-.75-3.56-2.22-4.52-1.19,1.28.15,4.93,1.57,5.46Z"></path><path class="cls-4" d="m238.5,91.89c-9.79-21.87-7.65-66.6-24.28-80.7-4.47-2.11-10.03-1.35-14.16-2.77-1.46-2.42-4.12-2.92-6.58-3.95,1.65-6.63-4.35-3.02-7.13-.79-2.64-2.81-3.83-3.08-6.57.06-1.7-3.83-9.46-6-9.02-.04,1.22,1.7-1.01,2.18-1.83,3.38-1.21,1.91-2.57,2.46-4.76,1.93-4.35.15-8.65,1.44-12.68,3.02-14.8,23.05-13.38,56.68-22.93,83.15-.29,1.32,1.43,2.53,2.39,1.29,2.51-1.63,10.24,4.8,11.04-1.07-.58-3.32-7.73-.58-8.59-4.07,2.42-.42,7.82,2.33,8.52-1.91-1.01-2.65-7.93.49-7.18-3.12,3.98-12.73,5.98-25.95,8.86-38.95,5.66-17.56.04-33.72,22.8-36.12.47,7.24-8.81,19.69,4.03,20.13,1.86,2.41-.69,7.2,2.07,10.2,15.61,24.87,7.14,44.41-3.97,68.98-2.8,6.82-10.47,12.62-8.04,20.65,1.57,13.54,1.66,27.24,2.64,40.83.03,3.51,4.18,1.92,6.38,3.05,3.23-.39,11.43,2.24,10.84-3.08-.26-10.73.94-21.68.94-32.5.97-8.62-1.21-18.5,1.35-26.52,5.62,16.37,2.32,40.34,6.27,59.06-.51,5.02,15.04,4.75,14.75,1.57,1.4-15.17,2.57-30.78,3.28-46.16-7.44-19.89-21.38-39.79-21.11-61.92,1.36-12.28,10.94-22.92,11.56-34.19,12.67-.45,3.55-12.9,3.76-20.19,22.34,1.29,18.41,23.16,23.72,39.73,2.22,11.92,4.5,23.85,8.06,35.46,1,2.73-3.85,1.49-5.42,2.08-2.36-.16-2.09,2.29-.24,3.1,2.1.54,4.45.04,6.54-.43,1.41,2.44-4.92,2.49-6.61,2.79-5.58,3.89,4.98,5.02,7.51,2.38.76-.47,1.37-.71,2,.21,2.99,2.12,2.51-2.91,1.79-4.57Zm-57.26-40.47c-1.42-6.48-7.79-12.28-6.3-19.07,2.27-4.7-2.35-5.48-5.87-6.3-3.49-1.72.85-8.17.53-11.55-.38-7.88,3.68-7.3,3.72.09,7.75,9.71,5.86,24.58,7.97,36.82h-.05Zm3.61-13.29c-.2,1.8-.45,3.6-.68,5.4-.18-.01-.37-.03-.55-.04-1.05-9.28-2.63-18.02-4.84-26.77-1.32-3.27,1.23-5.11,2.71-7.34,2.7-1.1,4.7,3.86,6.75,5.32-1.96,7.48-2.48,15.59-3.38,23.43Zm14.18-12.15c-3.67.81-8.64,1.54-6.26,6.46,1.05,6.69-4.46,13.16-6.6,19.39,1.4-10.31,2.62-20.71,2.42-30.99.18-1.07.42-2.02,1.83-2.01,2.63-1.28,3.46-5.4,4.29-8.12,2.63-5.79,3.63,2.14,3.49,4.73-.23,3.2,3.35,8.31.83,10.54Z"></path><path class="cls-2" d="m153.2,124.32c5.56-28.88,4.66-58.63,7.01-88.07-4.92-.96-5.37,17.67-7.84,22.27-1.67,13.22-10.2,28.9-8.84,40.94,7.87-9.04,7.27-27.13,11.66-39.25-.02,26.09-3.24,51.9-7.18,77.59,2.76,5.1,11.36-9.19,10.78-12.52-2.69,1.81-4.1,4.67-6.55,7.38.06-3.11.67-5.38.96-8.35Z"></path><path class="cls-7" d="m224.96,95.94c-7.28-19.06-7.87-43.22-16.92-60.26.03,32.1,2.78,64.87,7.5,96.96-2.51-2.38-3.72-5.51-6.82-7.34-.34,5.59,13.4,22.24,10.57,7.9-4.71-23.82-5.97-48.02-7-72.23.13-.02.27-.04.4-.06,1.26,3.3,10.03,50.92,12.27,35.03Z"></path><path class="cls-9" d="m208.22,102.04c-.13-.83-.14-1.41-.32-1.93-.11-3.27-2.49-2.87-2.39.16-.85,1.81,1.93,4.09,2.71,1.76Z"></path><path class="cls-8" d="m209.33,109.05c.07-.22.1-.46.21-1-2.2-4.42-2.62,3.24-.21,1Z"></path><path class="cls-10" d="m183.34,16.78c-2.27.14-2.79,3.98-.74,4.92,1.86-.05,2.25-4.18.74-4.92Z"></path></g></svg>