<svg xmlns="http://www.w3.org/2000/svg" width="470" height="324" viewBox="0 0 470 324">
<g fill="white" stroke="none">
  <path d="M 301 110 L 297 108 L 292 108 L 286 111 L 281 116 L 280 118 L 281 119 L 279 121 L 280 124 L 278 126 L 277 126 L 275 128 L 274 128 L 272 130 L 265 134 L 262 137 L 258 139 L 255 142 L 251 144 L 248 147 L 244 149 L 241 152 L 240 152 L 235 156 L 234 156 L 232 154 L 230 158 L 226 162 L 216 167 L 214 169 L 208 172 L 206 172 L 200 175 L 198 177 L 197 176 L 196 177 L 194 177 L 193 178 L 191 178 L 187 180 L 184 180 L 183 181 L 180 181 L 179 182 L 170 182 L 169 183 L 170 184 L 188 184 L 189 183 L 211 183 L 212 182 L 228 182 L 233 185 L 234 184 L 233 183 L 235 181 L 246 181 L 247 180 L 246 179 L 234 179 L 233 180 L 213 180 L 212 181 L 198 181 L 196 179 L 199 176 L 200 177 L 201 176 L 203 176 L 208 173 L 210 173 L 224 166 L 226 164 L 229 163 L 231 161 L 234 160 L 236 158 L 243 154 L 249 149 L 258 147 L 259 146 L 257 144 L 260 141 L 261 141 L 268 135 L 272 133 L 279 127 L 283 125 L 287 125 L 294 121 L 299 116 L 301 112 Z"/>

  <path d="M 199 105 L 198 104 L 195 104 L 191 106 L 187 110 L 186 110 L 180 116 L 180 117 L 175 122 L 174 122 L 149 147 L 147 145 L 148 143 L 147 142 L 149 140 L 148 138 L 150 136 L 150 134 L 149 133 L 148 134 L 148 136 L 149 137 L 147 139 L 148 141 L 146 143 L 147 144 L 145 146 L 145 148 L 142 154 L 140 156 L 139 156 L 131 164 L 130 164 L 127 167 L 126 167 L 122 170 L 123 171 L 126 169 L 128 169 L 132 167 L 136 167 L 137 166 L 134 163 L 138 159 L 139 159 L 148 150 L 149 150 L 152 147 L 156 146 L 157 145 L 159 145 L 162 143 L 174 140 L 176 142 L 176 144 L 178 146 L 181 146 L 184 144 L 193 144 L 194 143 L 198 142 L 201 139 L 201 138 L 199 136 L 195 134 L 193 134 L 192 133 L 185 133 L 184 134 L 182 134 L 174 140 L 170 139 L 169 140 L 165 140 L 161 142 L 159 140 L 181 118 L 187 118 L 195 114 L 199 108 Z"/>

  <path d="M 167 222 L 166 224 L 174 233 L 174 234 L 178 239 L 181 246 L 183 248 L 183 250 L 179 255 L 179 258 L 180 259 L 180 261 L 182 265 L 188 272 L 192 274 L 195 273 L 198 267 L 198 263 L 195 257 L 190 252 L 187 251 L 184 248 L 183 244 L 181 242 L 178 236 L 175 233 L 177 231 L 177 230 L 175 228 L 171 226 Z"/>

  <path d="M 239 188 L 246 193 L 247 193 L 250 196 L 250 199 L 251 200 L 253 198 L 255 199 L 259 203 L 260 203 L 280 222 L 281 222 L 295 236 L 295 241 L 296 242 L 296 244 L 298 248 L 302 252 L 303 251 L 301 249 L 303 247 L 297 242 L 299 240 L 301 240 L 303 241 L 307 245 L 305 247 L 310 251 L 308 253 L 306 252 L 305 253 L 306 254 L 307 253 L 309 254 L 311 254 L 312 253 L 312 250 L 308 242 L 303 237 L 295 234 L 274 212 L 275 210 L 274 209 L 272 209 L 268 207 L 264 203 L 265 202 L 264 200 L 261 200 L 257 198 L 254 195 L 253 195 L 248 191 L 240 187 Z"/>

  <path d="M 28 173 L 31 175 L 34 175 L 35 176 L 39 176 L 40 177 L 48 178 L 49 179 L 54 179 L 55 180 L 60 180 L 61 181 L 67 181 L 68 182 L 76 182 L 77 183 L 86 183 L 87 184 L 103 184 L 104 185 L 117 185 L 118 186 L 120 186 L 124 188 L 127 185 L 162 185 L 163 184 L 162 183 L 104 183 L 102 181 L 103 180 L 102 179 L 101 180 L 98 180 L 97 181 L 89 181 L 88 182 L 86 182 L 85 181 L 76 181 L 75 180 L 68 180 L 67 179 L 60 179 L 59 178 L 54 178 L 53 177 L 49 177 L 48 176 L 39 175 L 38 174 L 35 174 L 34 173 L 31 173 L 30 172 Z"/>

  <path d="M 408 152 L 407 151 L 405 153 L 403 152 L 401 154 L 400 153 L 398 153 L 397 154 L 389 155 L 388 156 L 385 156 L 384 157 L 382 155 L 381 155 L 375 159 L 372 159 L 371 160 L 368 160 L 367 161 L 364 161 L 363 162 L 359 162 L 358 163 L 355 163 L 354 164 L 351 164 L 350 165 L 347 165 L 346 166 L 337 167 L 336 168 L 333 168 L 332 169 L 328 169 L 327 170 L 324 170 L 323 171 L 318 171 L 317 172 L 318 173 L 321 173 L 322 174 L 325 174 L 326 175 L 327 174 L 326 173 L 328 171 L 331 171 L 332 170 L 337 170 L 338 169 L 342 169 L 343 168 L 353 167 L 354 166 L 362 165 L 363 164 L 366 164 L 367 163 L 370 163 L 371 162 L 374 162 L 375 161 L 379 161 L 380 160 L 383 160 L 384 159 L 400 159 L 401 158 L 399 156 L 402 153 L 404 154 L 406 152 L 407 153 Z"/>

  <path d="M 439 140 L 436 137 L 434 138 L 432 137 L 426 138 L 422 141 L 421 141 L 413 150 L 414 151 L 415 150 L 427 150 L 428 149 L 433 148 L 437 145 Z"/>

  <path d="M 158 238 L 156 240 L 155 239 L 153 240 L 151 244 L 151 246 L 150 247 L 150 255 L 151 256 L 151 258 L 153 262 L 155 264 L 156 264 L 158 262 L 160 258 L 160 256 L 161 255 L 161 247 L 160 246 L 160 244 L 159 243 L 159 239 Z"/>

  <path d="M 383 111 L 380 109 L 376 109 L 372 111 L 366 117 L 364 121 L 357 128 L 358 129 L 361 126 L 363 127 L 366 125 L 371 124 L 377 121 L 382 116 L 383 114 Z"/>

  <path d="M 152 106 L 148 106 L 145 109 L 145 111 L 144 112 L 144 119 L 147 122 L 146 125 L 149 128 L 150 128 L 153 124 L 155 120 L 155 118 L 156 117 L 156 112 L 154 108 Z"/>

  <path d="M 278 203 L 279 204 L 286 204 L 287 203 L 289 205 L 295 208 L 297 208 L 298 209 L 307 209 L 310 206 L 309 204 L 310 203 L 308 201 L 306 200 L 305 201 L 303 199 L 293 199 L 287 203 L 286 202 L 279 202 Z"/>

  <path d="M 273 146 L 276 149 L 280 151 L 284 151 L 288 153 L 294 153 L 297 151 L 296 149 L 297 148 L 294 145 L 293 146 L 291 143 L 288 143 L 287 142 L 283 142 L 282 143 L 276 143 Z"/>

  <path d="M 272 237 L 268 238 L 263 241 L 263 244 L 262 245 L 263 246 L 261 248 L 261 254 L 264 258 L 266 258 L 269 255 L 271 251 L 271 249 L 273 246 L 273 242 L 274 241 L 274 239 Z"/>

  <path d="M 170 211 L 173 215 L 174 215 L 177 218 L 181 220 L 183 220 L 187 222 L 193 222 L 194 221 L 194 219 L 189 214 L 181 210 L 174 210 L 173 211 L 171 210 Z"/>

  <path d="M 369 143 L 365 141 L 363 141 L 362 142 L 358 142 L 352 145 L 350 147 L 348 147 L 346 149 L 349 153 L 353 153 L 355 151 L 356 152 L 358 152 L 359 151 L 363 150 L 368 145 Z"/>

  <path d="M 361 195 L 360 196 L 362 198 L 360 201 L 360 205 L 361 206 L 361 208 L 363 212 L 366 215 L 370 216 L 371 217 L 372 216 L 372 208 L 370 204 Z"/>

  <path d="M 419 129 L 415 126 L 412 126 L 406 129 L 401 134 L 399 138 L 399 140 L 398 141 L 399 142 L 401 140 L 402 141 L 404 141 L 405 140 L 409 140 L 411 138 L 412 139 L 416 137 L 419 134 L 418 133 L 415 136 L 411 138 L 410 138 L 408 136 L 413 132 L 411 130 L 413 128 L 415 128 L 418 131 Z"/>

  <path d="M 381 192 L 383 194 L 382 196 L 384 200 L 386 202 L 390 204 L 393 204 L 394 205 L 400 204 L 401 203 L 401 202 L 396 197 L 392 196 L 391 195 L 388 195 L 382 191 Z"/>

  <path d="M 356 130 L 355 129 L 352 132 L 348 134 L 345 137 L 344 137 L 337 143 L 333 145 L 330 148 L 328 146 L 323 153 L 322 153 L 320 155 L 319 155 L 317 157 L 316 157 L 314 159 L 313 159 L 311 161 L 304 165 L 305 166 L 311 163 L 313 161 L 316 160 L 318 158 L 319 158 L 329 151 L 334 151 L 335 150 L 333 148 L 335 146 L 336 146 L 339 143 L 340 143 L 343 140 L 344 140 L 347 137 L 348 137 Z"/>

  <path d="M 387 181 L 387 182 L 389 184 L 388 185 L 389 186 L 392 186 L 393 187 L 401 187 L 402 188 L 403 187 L 409 187 L 410 186 L 406 182 L 404 181 L 403 182 L 401 180 L 388 180 Z"/>

  <path d="M 337 115 L 336 115 L 334 117 L 332 121 L 332 123 L 331 124 L 331 130 L 333 133 L 332 134 L 333 135 L 339 130 L 339 128 L 340 127 L 340 122 L 339 121 L 339 118 Z"/>

  <path d="M 252 227 L 251 226 L 249 228 L 247 226 L 247 224 L 246 223 L 244 225 L 245 226 L 243 228 L 241 228 L 240 229 L 238 227 L 237 228 L 238 234 L 241 237 L 245 237 L 250 232 Z"/>

  <path d="M 296 218 L 298 220 L 300 220 L 307 224 L 310 224 L 311 225 L 312 224 L 313 225 L 316 225 L 317 226 L 321 226 L 322 225 L 319 222 L 313 219 L 312 220 L 310 218 L 306 218 L 305 217 L 297 217 Z"/>

  <path d="M 147 166 L 150 169 L 151 169 L 155 172 L 157 171 L 160 171 L 164 169 L 167 166 L 165 164 L 163 164 L 162 163 L 155 163 L 153 165 L 148 165 Z"/>

  <path d="M 242 118 L 240 121 L 240 123 L 238 127 L 238 135 L 239 136 L 237 140 L 238 141 L 242 133 L 244 131 L 246 131 L 248 129 L 246 127 L 246 125 L 247 124 L 245 122 L 244 123 L 242 121 L 243 119 Z"/>

  <path d="M 405 159 L 406 160 L 412 160 L 414 162 L 414 164 L 416 166 L 418 166 L 419 167 L 420 166 L 418 164 L 420 162 L 422 161 L 425 161 L 426 160 L 431 164 L 429 166 L 423 166 L 422 167 L 423 168 L 428 168 L 434 165 L 434 163 L 429 160 L 427 161 L 425 159 L 422 159 L 421 160 L 413 159 L 412 158 L 406 158 Z"/>

  <path d="M 355 181 L 356 182 L 358 182 L 359 183 L 367 185 L 370 187 L 372 187 L 379 191 L 380 190 L 372 186 L 370 184 L 372 182 L 379 182 L 380 181 L 379 180 L 370 180 L 369 181 L 368 180 L 356 180 Z"/>

  <path d="M 179 232 L 183 234 L 189 240 L 195 243 L 199 243 L 200 244 L 201 243 L 201 242 L 197 238 L 191 235 L 185 234 L 180 231 Z"/>

  <path d="M 252 220 L 250 218 L 250 216 L 249 215 L 247 217 L 245 216 L 244 217 L 242 217 L 238 221 L 237 224 L 238 225 L 239 224 L 239 222 L 244 218 L 246 218 L 248 220 L 247 221 L 248 222 L 249 221 L 251 223 L 252 222 Z"/>

  <path d="M 294 175 L 291 172 L 290 173 L 288 173 L 284 175 L 282 177 L 281 176 L 280 177 L 281 178 L 283 176 L 284 177 L 290 177 Z"/>

  <path d="M 243 116 L 244 117 L 248 113 L 250 113 L 252 115 L 252 117 L 253 118 L 254 117 L 253 114 L 250 111 L 246 112 Z"/>

  <path d="M 337 177 L 338 178 L 342 179 L 344 181 L 345 181 L 347 179 L 348 180 L 349 179 L 348 178 L 347 179 L 344 177 L 340 177 L 339 176 Z"/>

  <path d="M 141 199 L 145 203 L 146 203 L 148 201 L 142 198 Z"/>

  <path d="M 155 211 L 154 212 L 154 214 L 156 217 L 158 215 L 158 214 Z"/>

  <path d="M 253 179 L 254 180 L 260 180 L 261 179 L 260 178 L 254 178 Z"/>

  <path d="M 266 178 L 267 179 L 271 179 L 272 178 L 271 177 L 267 177 Z"/>

  <path d="M 157 204 L 156 205 L 159 207 L 160 206 Z"/>

  <path d="M 301 168 L 300 167 L 297 169 L 298 170 Z"/>

  <path d="M 158 223 L 157 224 L 158 226 L 159 225 Z"/>

  <path d="M 298 174 L 297 175 L 299 176 L 300 175 Z"/>

  <path d="M 312 172 L 311 173 L 313 174 L 314 173 Z"/>

  <path d="M 157 219 L 156 220 L 157 221 L 158 220 Z"/>

  <path d="M 164 207 L 163 208 L 164 209 L 165 208 Z"/>

  <path d="M 271 201 L 270 202 L 271 203 L 272 202 Z"/>

  <path d="M 352 179 L 351 180 L 352 181 L 353 180 Z"/>

  <path d="M 306 173 L 305 174 L 306 175 L 307 174 Z"/>

  <path d="M 342 148 L 341 149 L 342 150 L 343 149 Z"/>

  <path d="M 253 122 L 252 123 L 253 124 L 254 123 Z"/>

</g></svg>