<svg xmlns="http://www.w3.org/2000/svg" xmlns:xlink="http://www.w3.org/1999/xlink" id="Capa_2" viewBox="0 0 252.25 286.59"><defs><style>.cls-1{fill:url(#Degradado_sin_nombre_32);}.cls-1,.cls-2,.cls-3,.cls-4,.cls-5,.cls-6,.cls-7,.cls-8,.cls-9,.cls-10,.cls-11,.cls-12,.cls-13{fill-rule:evenodd;}.cls-2{fill:url(#Degradado_sin_nombre_32-3);}.cls-3{fill:url(#Degradado_sin_nombre_32-9);}.cls-4{fill:url(#Degradado_sin_nombre_32-2);}.cls-5{fill:url(#Degradado_sin_nombre_32-4);}.cls-6{fill:url(#Degradado_sin_nombre_32-7);}.cls-7{fill:url(#Degradado_sin_nombre_32-6);}.cls-8{fill:url(#Degradado_sin_nombre_32-8);}.cls-9{fill:url(#Degradado_sin_nombre_32-5);}.cls-10{fill:url(#Degradado_sin_nombre_32-10);}.cls-11{fill:url(#Degradado_sin_nombre_32-12);}.cls-12{fill:url(#Degradado_sin_nombre_32-13);}.cls-13{fill:url(#Degradado_sin_nombre_32-11);}</style><linearGradient id="Degradado_sin_nombre_32" x1="-34.07" y1="236.87" x2="253.44" y2="35.35" gradientUnits="userSpaceOnUse"><stop offset="0" stop-color="#b48b66"></stop><stop offset=".34" stop-color="#eac682"></stop><stop offset=".64" stop-color="#c59e6e"></stop><stop offset=".92" stop-color="#ebc186"></stop></linearGradient><linearGradient id="Degradado_sin_nombre_32-2" x1="-35.32" y1="235.09" x2="252.19" y2="33.57" xlink:href="#Degradado_sin_nombre_32"></linearGradient><linearGradient id="Degradado_sin_nombre_32-3" x1="-70.3" y1="185.18" x2="217.2" y2="-16.35" xlink:href="#Degradado_sin_nombre_32"></linearGradient><linearGradient id="Degradado_sin_nombre_32-4" x1="-55.48" y1="206.32" x2="232.03" y2="4.8" xlink:href="#Degradado_sin_nombre_32"></linearGradient><linearGradient id="Degradado_sin_nombre_32-5" x1="-16.44" y1="262.02" x2="271.06" y2="60.5" xlink:href="#Degradado_sin_nombre_32"></linearGradient><linearGradient id="Degradado_sin_nombre_32-6" x1="-10.68" y1="270.23" x2="276.82" y2="68.71" xlink:href="#Degradado_sin_nombre_32"></linearGradient><linearGradient id="Degradado_sin_nombre_32-7" x1="-14.71" y1="264.48" x2="272.79" y2="62.96" xlink:href="#Degradado_sin_nombre_32"></linearGradient><linearGradient id="Degradado_sin_nombre_32-8" x1="-30.37" y1="242.15" x2="257.14" y2="40.63" xlink:href="#Degradado_sin_nombre_32"></linearGradient><linearGradient id="Degradado_sin_nombre_32-9" x1="-9.31" y1="272.19" x2="278.19" y2="70.66" xlink:href="#Degradado_sin_nombre_32"></linearGradient><linearGradient id="Degradado_sin_nombre_32-10" x1="-57.63" y1="203.25" x2="229.87" y2="1.73" xlink:href="#Degradado_sin_nombre_32"></linearGradient><linearGradient id="Degradado_sin_nombre_32-11" x1="16.9" y1="309.58" x2="304.4" y2="108.06" xlink:href="#Degradado_sin_nombre_32"></linearGradient><linearGradient id="Degradado_sin_nombre_32-12" x1="-24.67" y1="250.27" x2="262.83" y2="48.75" xlink:href="#Degradado_sin_nombre_32"></linearGradient><linearGradient id="Degradado_sin_nombre_32-13" x1="17.12" y1="309.89" x2="304.62" y2="108.37" xlink:href="#Degradado_sin_nombre_32"></linearGradient></defs><g id="Capa_1-2"><path class="cls-1" d="m50.15,173c-4.79,1.08-5.36,9.54.38,9.12,5.29-.38,5.43-10.42-.38-9.12Z"></path><path class="cls-4" d="m31.15,182.13c-4.22,13.46,14.74,9.17,8.74-.38-2.14-3.41-5.64-1.63-8.74.38Z"></path><path class="cls-2" d="m71.42,93.99c4.45-7.32-3.72-13.46-10.26-9.11-3.43,7.11,3.46,12.36,10.26,9.11Zm-6.46-5.7c.97.05,1.96.07,1.9,1.14-1.09.08-2.07.05-1.9-1.14Z"></path><path class="cls-5" d="m69.9,111.85c-3.03,1.28-3.09,7.19-1.14,9.12,4.8,4.76,12.37-2.96,7.21-8.36-2.26-.19-4.22-1.54-6.07-.75Z"></path><path class="cls-9" d="m130.68,154.4c-2.2-.02-2.98,1.24-3.04,2.66-.2,4.71,8.06,3.28,10.63,1.9,3.48-5.46-5.3-10.16-7.59-4.56Z"></path><path class="cls-7" d="m202.1,127.05c.95-2.93.3-7-1.52-8.37-5.57.13-8.98,2.42-8.36,8.74,1.93,3.16,7.84,1.7,9.88-.37Z"></path><path class="cls-6" d="m167.53,129.32c-2.12,2.75-2.81,8.8,0,10.63,5.74,3.76,13.27-5.26,8.36-11.4-3.44-1.27-4.85,1.94-8.36.76Zm3.04,6.08c.21-1.47-.68-1.86-.38-3.42h1.52c.15.42.53,3.63-1.14,3.42Z"></path><path class="cls-8" d="m144.74,118.31c2.03,1.63,6.02,2.94,9.12,2.28,6.98-12.13-13.18-15.2-9.12-2.28Z"></path><path class="cls-3" d="m157.27,149.46c-4.52,1.91-1.95,9.8,2.66,9.5,5.84-.39,6.44-13.35-2.66-9.5Z"></path><path class="cls-10" d="m86.23,98.56c-5.02,1.28-1.8,6.5,0,6.84,5.08.94,5.94-8.37,0-6.84Z"></path><path class="cls-13" d="m146.64,215.18c-7.1-3.58-12.15,14.34-.38,9.88,2.29-2.14,3.36-8.37.38-9.88Z"></path><path class="cls-11" d="m247.31,106.53c-9.51-10.12-26.11-13.15-37.99-20.9,4.62-2.82,9.82-5.89,12.54-10.63,1.01-1.78.39-5.06,3.41-5.32.46-1.51-2.54-.16-1.14-1.52,4.47-4.74,4.25-12.31,4.56-19.75.2-4.93.6-8.14-1.53-11.4-3.65-5.61-9.57-7.78-15.95-11.78-5.96-3.74-13.09-7.1-20.13-7.6-7.82-.55-15.89,2.69-22.78,6.08-10.19,5-16.88,13.51-22.8,21.28-3.88-14.8-10.59-28.7-19.37-37.99C121.05,1.62,117.68-.66,107.13.16c-7.26.57-13.94,3.51-17.48,7.6-1.01,1.17-1.74,3.58-3.03,5.7-1.25,2.05-3.06,3.61-3.8,5.32-4.33,9.94,5.71,14.77,7.6,21.27-16.34,1.43-25.5,9.89-40.65,11.78-10.9,23.22-18.97,48.85-26.97,75.59C14.17,156.26,2.13,186.4,0,220.49c31.32,17.13,67.14,33.81,101.43,49.01,8.85,3.92,17.46,8.09,26.97,10.63,3.48.94,7.32.97,10.63,2.28,3.01,1.2,5.81,4.1,9.12,4.17,5.46.15,13.51-5.74,18.61-8.73,5.14-3.01,13.22-6.83,15.96-11.4,1.14-1.91.22-2.41.76-3.42,1.46-2.7,5.45-3.3,6.84-6.83,1.42-7.78,7.38-12.18,11.02-19,9.07-17.05,15.77-35.79,22.79-54.33,9.58-25.29,19.9-49.58,28.11-74.83-1.11-1.05-2.53-1.79-4.94-1.52Zm-31.21-37.14c-.21.54-.44,1.02-.7,1.43.21-.47.45-.95.7-1.43,1.46-3.72,2.11-10.26,4.62-13.39.41,5.05-2.55,9.36-4.62,13.39Zm-2.98-13.39c1.27-1.27,2.36-2.7,3.42-4.18.81,1.83-1.78,3.52-3.42,4.18Zm6.85-8.74c2.51,1.15-.67,4.37-1.9,3.8.02-1.88,1.5-2.3,1.9-3.8Zm-5.71-.38c-.31-.15,2.58-3.44,3.42-4.94.73,2.01-2.56,3.26-3.42,4.94Zm-.76-10.26c2.74,1.99-2.63,3.99-3.04,6.46-.04-1.69,2.32-4.26,3.04-6.46Zm-4.95-5.32c.81.47,1.48,1.05,2.29,1.52-1.72,1.95-2.47,4.87-4.56,6.46-.54-2.51,1.76-5.28,2.28-7.98Zm-6.46-1.9c1.41-.27,1.64.65,3.05.38-1.51,1.8-1.75,6.42-4.57,5.7.4-2.14,1.68-3.4,1.52-6.08Zm-27.34,36.09c-6.5-1.83-11.53-7.56-16.72-7.98,2.45-9.12,19.02-16.39,28.87-17.47,6.59-.72,10.89,2.67,14.82,5.7,7.16,16.45-11.17,24.21-26.97,19.75Zm20.5-37.23c1.48-.2,1.85.68,3.42.38-.09,2.18-1.59,2.96-1.89,4.93-.9-.13-1.57-.46-2.28-.76.26-1.52.96-2.59.75-4.56Zm-33.81,13.68c7.12-6.15,16.51-14.39,30.77-14.06-.26,1.76-1.24,2.8-1.52,4.56-14.45.75-24.01,6.38-32.67,12.92-.73-1.61,2.08-2.26,3.42-3.42Zm-4.18,26.59c13.59,6.19,46.4,12.24,52.8-5.32,1.69.04,2.75-.55,3.43-1.52.43.07.21.38,0,.38-4.16,10.65-11.49,18.23-26.59,17.48-14.13-.71-28.76-9.25-37.23-13.3,2.35-1.43,5.06,1.13,7.6,2.28Zm-42.92,96.87c8.2-25.11,19.43-47.18,26.59-73.32,12.15,4.31,25.5,9.74,38.75,13.31,13.39,3.59,25.05,9.8,36.47,15.18-11.93,21.62-23.58,43.54-34.19,66.48-22.07-7.69-45.33-14.2-67.62-21.65Zm63.43,30.38c-1.4,3.18-6.63-1.27-9.88-1.14v-1.9c3.44.87,6.99,1.63,9.88,3.04Zm-15.95-3.04c-.32-1.21.6-1.18.77-1.9.3.2.61.4,1.13.38.27,1.4-.59,1.67-1.89,1.52Zm-5.32-3.8c1.57-.12.7,2.66-.76,1.9-.28-1.17,1.04-.73.76-1.9Zm-5.7.38c-4.7-1.64-9.41-3.26-14.06-4.94-.25-1.38.82-1.45.76-2.66,4.63,1.58,8.82,3.58,13.67,4.94.19,1.2-.68,1.34-.38,2.66Zm-63.06-.38c1.21-4.36,2.65-8.49,4.18-12.53,2.01.79,4.16,1.41,6.08,2.28-1.87,4.46-3.51,9.15-4.94,14.06-2.1-.95-3.3-2.79-5.32-3.8Zm3.42,8.37c-.5,3.55-2.01,6.08-2.66,9.49-2.11-.67-4-1.57-6.08-2.28.76-3.41,2.38-5.97,3.03-9.49,2.14.52,2.73,2.58,5.7,2.29Zm2.66-26.6c-.15-.92.7-.82.38-1.9,2.09,1.33,5.64,1.2,6.08,4.17-2.1-.81-4.17-1.65-6.46-2.27Zm2.66-7.22c.02-1.25,1.08-1.45.77-3.04,2.16,1.12,3.87,2.72,6.08,3.8-.39.49-.37,1.4-.77,1.9-2.11-.8-3.6-2.22-6.08-2.66Zm2.66-7.59c.13-1.39.95-2.11,1.15-3.42,1.7,1.59,3.91,2.67,5.69,4.17.19,1.21-.54,1.49-.75,2.29-2.06-.99-3.75-2.33-6.09-3.04Zm2.66-7.23c3.53-10.52,7.52-20.59,11.02-31.14,2.06,1.11,3.57,2.77,5.32,4.18-1.38,11.91-7.19,19.39-9.88,30.01-2,.27-3.79-2.73-6.46-3.05Zm17.48-50.52c2.23.68,4.89.94,6.08,2.66-1.75.73-3.95-1.02-6.46-.76-.15-.92.7-.82.39-1.9Zm1.52-3.41c1.29-3.03,2.7-5.91,3.8-9.12,2.17.62,3.9,1.67,6.08,2.28-.49,3.05-2.53,4.57-3.04,7.6-2.41-.11-4.63-.43-6.83-.75Zm2.28,11.77c-.51.88-.63,2.16-1.14,3.04-1.61-.92-3.54-1.53-5.32-2.28-.1-1.36.7-1.83.77-3.04,2.14.51,3.39,1.93,5.69,2.28Zm-2.66,7.6c.15.91-.69.82-.38,1.9-2.06-1.1-4.44-1.9-5.32-4.18,2.44.22,3.47,1.85,5.7,2.28Zm-8.74,57.74c7.1,2.4,13.73,5.26,20.52,7.97.24,1.4-.82,1.46-.76,2.67-6.89-2.49-13.8-4.94-20.89-7.22.45-1.07.86-2.19,1.14-3.43Zm31.53-99.15c-1.25,2.3-2.14,4.95-3.42,7.22-2.32-.85-4.66-1.67-6.84-2.66,3.24-2.69,4.02-6.56,10.26-4.56Zm-18.61-56.99c4.1,6.67,6.41,15.11,9.49,22.79-3.36-3.99-6.41-11.56-10.64-15.95.19-2.47.8-4.51,1.14-6.84Zm-4.56-6.84c1.12.28,1.63,1.15,2.28,1.9-1.74,1.68-2.38,4.45-3.03,7.22-.91-2.69.64-6.2.75-9.12Zm-6.46-1.14c.45-.44,1.34-.43,2.28-.38-.54,2.49-1.61,4.47-1.9,7.22-.88-1.53-.13-4.68-.38-6.84Zm-5.32,0h1.52c-1.1,1.56.22,5.54-1.9,6.08-.99-1.78.5-3.94.37-6.08Zm9.88,15.58c5.04,6.11,7.19,15.1,10.26,23.17-10.89-4.94-20.72-10.94-22.8-24.69,3.9-4.96,8.74,1.93,12.53,1.52Zm6.46,32.29c-3.3-1.01-8.8-3.11-10.26-7.22,2.38,1.92,7.47,4.42,10.26,7.22Zm-21.65-47.1c2.14,3.84-1.46,8.39-3.05,11.02-.59-3.76,1.55-8.08,3.05-11.02Zm-13.31,15.58c.49-2.94,2.62-4.23,3.8-6.46,1.59,3.47.31,9.82,1.52,13.68-2.25-1.93-3.51-4.85-5.32-7.22Zm7.6,23.17c1.72-.39,7.8,6.69,9.88,7.98,6.69,4.15,14.99,8.64,21.27,12.15-1.55,2.25-3.13,4.47-5.32,6.08-16.22-6.45-31.01-14.32-49-18.99,7.19-2.77,16.34-5.69,23.18-7.22Zm-44.07,13.67c-.04-.53-.07-1.07.38-1.13,25.24,4.13,41.69,17.06,64.96,23.17-11.12,22.43-19.44,47.67-28.87,71.8-19.1-6.86-38.02-13.9-58.11-19.76,6.88-25.02,15.24-48.57,21.65-74.07Zm-23.18,78.26c18.92,7.42,37.3,15.37,56.98,22.04-.07,1.07-.7,1.58-.76,2.66-19.4-4.66-39.38-12.03-57.74-18.99.19-2.23.9-3.91,1.52-5.7Zm-21.65,76.36c.2-3.78,1.88-7.47.76-11.4,6.71-16.58,11.46-35.14,17.1-52.81,18.99,7.23,36.99,15.43,56.22,22.42-4.51,12.39-7.84,25.45-12.16,39.51-2.85,9.29-6.41,16.75-7.22,27.73-18.15-8.57-37.42-16.02-54.7-25.45Zm58.5,27.35c4.93-8.49,9.06-21.08,12.92-31.91,2.74.04,3.71,1.86,6.84,1.52-2.68,12.65-8.14,22.51-12.92,33.06-2.55-.61-4.23-2.11-6.83-2.66Zm75.98,30.78c-22.22-5.64-39.93-15.79-60.03-23.56,8.06-23.09,16.19-46.12,25.45-68,20.42,8.71,42.57,15.67,66.1,21.27-9.08,21.69-18.37,43.17-24.69,67.62-2.78.39-4.91,1.42-6.83,2.66Zm44.06-27.35c-10.17,4.4-17.6,11.52-26.21,17.47-.46-1.86,2.12-3.95,2.66-6.07,9.23-3.55,16.51-9.08,23.93-14.44,1.07.73-.52,1.98-.38,3.04Zm-20.89,6.08c1.14-2.02,1.89-4.44,3.04-6.46,8.19-3.08,14.67-7.87,21.65-12.16.65-.15.71.3.76.76-8.64,5.8-16.81,12.06-25.45,17.85Zm43.69-60.41c-6.37,1.75-12.62,3.6-18.24,6.09-.78-.93,1.03-2.5,1.14-3.8,6.72-2.65,13.01-5.74,18.99-9.12,1.25,1.2-1.59,4.67-1.89,6.83Zm12.16-30.76c-6.61,3.39-12.71,7.29-19.38,10.63.64-1.01.87-2.41,1.52-3.41,6.43-2.68,12.3-5.94,18.22-9.12.96.26-.7,1.01-.37,1.91Zm3.8-9.5c-5.36,4.14-12.58,6.42-18.23,10.25.51-3.27,5.14-4.46,8.35-6.07,3.41-1.72,7.21-3.04,9.88-4.95.47.1.38.76,0,.77Zm-5.32-3.05c-3.34,1.69-6.75,3.11-9.12,4.18,4.94-4.68,12.43-6.81,18.23-10.63,1.33,2.27-5.02,4.4-9.11,6.45Zm13.29-14.43c-6.49,2.63-11.99,6.25-18.23,9.11,3.72-5.65,12.58-6.15,18.23-9.87.48.09.39.76,0,.76Zm-11.02-20.13c-21.84-14-50.58-21.08-75.97-31.54.89-1.77,1.78-3.54,2.66-5.32,12.55,5.17,23.97,14,42.92,12.92,2.39-.14,5.43-1.45,7.98-1.14,3.99.49,13.12,8.1,16.71,10.26,6.35,3.82,11.4,6.86,17.1,9.49-3.6,1.98-8.17,2.98-11.4,5.33Z"></path><path class="cls-12" d="m124.98,231.51c-2.49-1.36-4.32.32-7.98.76-4.14,5.28.24,13.56,6.46,10.64,2.98-1.39,5.35-9.32,1.52-11.39Z"></path></g></svg>